<svg version="1.1" id="Layer_1" xmlns="http://www.w3.org/2000/svg" xmlns:xlink="http://www.w3.org/1999/xlink" x="0px"
     y="0px"
     width="32px" height="32px" viewBox="0 0 344 344" xml:space="preserve">
<path fill="#2A4568" opacity="1.000000" stroke="none"
      d="
M154.000000,1.000001
	C166.354233,1.000000 178.708450,1.000000 191.876190,1.185581
	C215.393677,4.748126 237.167938,10.876127 257.186707,22.526329
	C299.468872,47.132996 327.581360,82.617714 339.988586,130.141388
	C342.039001,137.995056 343.348236,146.042236 345.000000,154.000000
	C345.000000,166.354233 345.000000,178.708450 344.826538,191.881958
	C341.223724,215.388412 335.128479,237.170578 323.475433,257.187836
	C298.861420,299.468872 263.294434,327.476868 215.850586,339.987396
	C208.005295,342.056122 199.955353,343.348694 192.000000,345.000000
	C179.645767,345.000000 167.291550,345.000000 154.123810,344.814392
	C152.666824,344.466919 152.032028,344.241089 151.378616,344.152405
	C118.294128,339.661499 88.598007,327.386963 62.979229,305.721680
	C34.736374,281.837280 15.292678,252.324844 6.107278,216.348953
	C4.057643,208.321289 2.684565,200.120880 1.000000,192.000000
	C1.000000,179.645767 1.000000,167.291550 1.173475,154.118042
	C1.515857,152.657349 1.754879,152.025436 1.843618,151.373093
	C6.344118,118.288651 18.649382,88.616707 40.277042,62.961979
	C64.138222,34.657852 93.653236,15.246618 129.654266,6.104997
	C137.683868,4.066068 145.880356,2.684319 154.000000,1.000001
M180.311783,13.150448
	C151.023453,12.022495 123.222351,17.931013 97.513039,32.006981
	C29.095432,69.465942 -1.987397,145.002670 19.842739,219.864548
	C41.883595,295.449066 122.199173,345.003174 199.414520,330.738495
	C237.149582,323.767365 269.430481,306.683197 293.957092,277.094421
	C333.273285,229.663651 344.220428,175.665436 322.514435,117.955452
	C298.327698,53.649822 249.473175,19.631884 180.311783,13.150448
z"/>
    <path fill="#5FAF57" opacity="1.000000" stroke="none"
          d="
M180.786469,13.166534
	C249.473175,19.631884 298.327698,53.649822 322.514435,117.955452
	C344.220428,175.665436 333.273285,229.663651 293.957092,277.094421
	C269.430481,306.683197 237.149582,323.767365 199.414520,330.738495
	C122.199173,345.003174 41.883595,295.449066 19.842739,219.864548
	C-1.987397,145.002670 29.095432,69.465942 97.513039,32.006981
	C123.222351,17.931013 151.023453,12.022495 180.786469,13.166534
M307.574493,175.230743
	C307.575134,161.320557 305.773590,147.658737 301.751709,134.329498
	C281.094147,65.866852 209.722992,24.375681 138.046341,42.887047
	C72.668915,59.771564 27.614973,127.923561 39.981728,194.408768
	C50.019535,248.373215 81.227318,285.511627 133.986603,301.341858
	C187.948227,317.532776 235.121368,303.243347 273.423981,262.091217
	C295.738159,238.117035 306.118896,208.745911 307.574493,175.230743
z"/>
    <path fill="#2B4768" opacity="1.000000" stroke="none"
          d="
M307.552917,175.686707
	C306.118896,208.745911 295.738159,238.117035 273.423981,262.091217
	C235.121368,303.243347 187.948227,317.532776 133.986603,301.341858
	C81.227318,285.511627 50.019535,248.373215 39.981728,194.408768
	C27.614973,127.923561 72.668915,59.771564 138.046341,42.887047
	C209.722992,24.375681 281.094147,65.866852 301.751709,134.329498
	C305.773590,147.658737 307.575134,161.320557 307.552917,175.686707
M67.347496,214.070328
	C85.752289,263.516174 140.285095,294.278687 192.356323,284.589111
	C255.891769,272.766174 296.601685,212.398438 283.483673,149.458511
	C270.376404,86.570053 206.149170,46.839611 144.334030,63.381664
	C78.698799,80.945999 43.233292,149.758881 67.347496,214.070328
z"/>
    <path fill="#7ED494" opacity="1.000000" stroke="none"
          d="
M67.191963,213.715363
	C43.233292,149.758881 78.698799,80.945999 144.334030,63.381664
	C206.149170,46.839611 270.376404,86.570053 283.483673,149.458511
	C296.601685,212.398438 255.891769,272.766174 192.356323,284.589111
	C140.285095,294.278687 85.752289,263.516174 67.191963,213.715363
M164.481796,222.408798
	C156.692581,218.713287 152.774185,212.414810 151.838882,203.969910
	C150.990173,196.306732 146.297256,192.011612 139.933456,192.815567
	C133.672485,193.606537 129.744461,199.105484 130.566544,206.486572
	C132.111221,220.355652 137.997986,232.258774 150.494049,238.746567
	C158.911728,243.116928 163.800125,247.402740 162.481705,257.648926
	C161.807907,262.885223 167.586456,267.058350 172.881058,267.005646
	C178.241196,266.952301 182.678116,262.977234 183.331009,257.446838
	C183.583771,255.305725 183.702148,253.091492 183.454224,250.960297
	C182.912521,246.303741 184.726364,243.954941 189.204590,242.092911
	C217.427414,230.358063 223.942993,193.507248 201.715134,172.538940
	C193.136856,164.446762 182.691925,161.521118 171.182617,160.734009
	C155.412582,159.655487 146.809601,142.840073 154.852753,129.435928
	C159.420334,121.823914 168.164490,118.095016 177.266937,119.877510
	C186.124130,121.611977 192.305573,128.982605 193.743210,139.523499
	C194.796600,147.247040 199.239655,151.342255 205.702393,150.546448
	C212.078400,149.761322 215.761017,144.543839 214.961014,136.908066
	C213.438126,122.372826 206.789749,110.600700 193.784500,103.820801
	C186.863083,100.212517 182.172577,97.146759 183.074234,88.237411
	C183.613647,82.907471 177.940750,78.868919 172.608475,78.969757
	C167.300705,79.070129 162.860626,83.141998 162.235977,88.645912
	C162.011459,90.624214 162.002502,92.646500 162.105331,94.637863
	C162.261200,97.656685 161.246002,99.324471 158.171768,100.585678
	C138.925049,108.481644 127.687920,127.274658 130.874329,145.690231
	C134.608124,167.269394 149.596588,180.556549 171.454117,182.382812
	C176.081635,182.769455 181.102600,184.240601 184.972092,186.723877
	C193.544052,192.224960 195.953751,203.346970 191.506607,212.440292
	C186.764847,222.136078 176.696671,226.059998 164.481796,222.408798
z"/>
    <path fill="#2B476A" opacity="1.000000" stroke="none"
          d="
M164.855453,222.545166
	C176.696671,226.059998 186.764847,222.136078 191.506607,212.440292
	C195.953751,203.346970 193.544052,192.224960 184.972092,186.723877
	C181.102600,184.240601 176.081635,182.769455 171.454117,182.382812
	C149.596588,180.556549 134.608124,167.269394 130.874329,145.690231
	C127.687920,127.274658 138.925049,108.481644 158.171768,100.585678
	C161.246002,99.324471 162.261200,97.656685 162.105331,94.637863
	C162.002502,92.646500 162.011459,90.624214 162.235977,88.645912
	C162.860626,83.141998 167.300705,79.070129 172.608475,78.969757
	C177.940750,78.868919 183.613647,82.907471 183.074234,88.237411
	C182.172577,97.146759 186.863083,100.212517 193.784500,103.820801
	C206.789749,110.600700 213.438126,122.372826 214.961014,136.908066
	C215.761017,144.543839 212.078400,149.761322 205.702393,150.546448
	C199.239655,151.342255 194.796600,147.247040 193.743210,139.523499
	C192.305573,128.982605 186.124130,121.611977 177.266937,119.877510
	C168.164490,118.095016 159.420334,121.823914 154.852753,129.435928
	C146.809601,142.840073 155.412582,159.655487 171.182617,160.734009
	C182.691925,161.521118 193.136856,164.446762 201.715134,172.538940
	C223.942993,193.507248 217.427414,230.358063 189.204590,242.092911
	C184.726364,243.954941 182.912521,246.303741 183.454224,250.960297
	C183.702148,253.091492 183.583771,255.305725 183.331009,257.446838
	C182.678116,262.977234 178.241196,266.952301 172.881058,267.005646
	C167.586456,267.058350 161.807907,262.885223 162.481705,257.648926
	C163.800125,247.402740 158.911728,243.116928 150.494049,238.746567
	C137.997986,232.258774 132.111221,220.355652 130.566544,206.486572
	C129.744461,199.105484 133.672485,193.606537 139.933456,192.815567
	C146.297256,192.011612 150.990173,196.306732 151.838882,203.969910
	C152.774185,212.414810 156.692581,218.713287 164.855453,222.545166
z"/>
</svg>