<svg xmlns="http://www.w3.org/2000/svg" viewBox="0 0 490.19 138.94"><defs><style>.cls-1{fill:#ffc107;}</style></defs><g id="Layer_2" data-name="Layer 2"><g id="Layer_1-2" data-name="Layer 1"><path class="cls-1" d="M74.28,42.53A18.71,18.71,0,0,1,80,28.8a18.71,18.71,0,0,1,13.73-5.74V69.3A44.51,44.51,0,0,1,80,102.15a45.33,45.33,0,0,1-33,13.62,45.47,45.47,0,0,1-33.14-13.62A44.51,44.51,0,0,1,0,69.3V23.06A18.71,18.71,0,0,1,13.73,28.8a18.71,18.71,0,0,1,5.74,13.73V69.3a27.48,27.48,0,0,0,8,19.76,26.06,26.06,0,0,0,19.47,8.28A25.86,25.86,0,0,0,66.29,89a27.52,27.52,0,0,0,8-19.7Z"/><path class="cls-1" d="M139,133.21a18.74,18.74,0,0,1-13.73,5.73V69.53a44.41,44.41,0,0,1,13.85-32.85,47.05,47.05,0,0,1,66.22,0,44.28,44.28,0,0,1,13.91,32.85,44,44,0,0,1-13.85,32.74,45.87,45.87,0,0,1-33.2,13.5H144.7v3.71A18.72,18.72,0,0,1,139,133.21Zm33.2-35.87a26,26,0,0,0,19.41-8.17,27.17,27.17,0,0,0,7.94-19.64,27.59,27.59,0,0,0-7.94-19.76,26.89,26.89,0,0,0-38.82,0,27.59,27.59,0,0,0-7.94,19.76V97.34Z"/><path class="cls-1" d="M245.82,69.53a27.05,27.05,0,0,0,8,19.64,26.2,26.2,0,0,0,19.47,8.17h8.92a18.4,18.4,0,0,1,18.43,18.43H273.28a45.74,45.74,0,0,1-33.09-13.5,44,44,0,0,1-13.84-32.74V0a18.72,18.72,0,0,1,13.73,5.74,18.74,18.74,0,0,1,5.74,13.73Z"/><path class="cls-1" d="M386.37,69.53v46.24H339.32a45.73,45.73,0,0,1-33.08-13.5,44,44,0,0,1-13.85-32.74,44.37,44.37,0,0,1,13.85-32.85,47.07,47.07,0,0,1,66.23,0A44.31,44.31,0,0,1,386.37,69.53Zm-19.7,27.81V69.53a27.56,27.56,0,0,0-7.95-19.76,27,27,0,0,0-38.91,0,27.56,27.56,0,0,0-7.95,19.76,27.14,27.14,0,0,0,7.95,19.64,26.12,26.12,0,0,0,19.46,8.17Z"/><path class="cls-1" d="M490.19,138.94a19.51,19.51,0,0,1-19.47-19.46v-3.71H443.33a45.77,45.77,0,0,1-33.19-13.5,44.07,44.07,0,0,1-13.82-32.74V23.06a18.71,18.71,0,0,1,13.73,5.74,18.71,18.71,0,0,1,5.74,13.73v27a27,27,0,0,0,8,19.64,26.3,26.3,0,0,0,19.51,8.17h27.41V42.53a18.71,18.71,0,0,1,5.74-13.73,18.71,18.71,0,0,1,13.73-5.74Z"/><circle class="cls-1" cx="103.76" cy="105.88" r="10.01"/></g></g></svg>