<svg xmlns="http://www.w3.org/2000/svg" viewBox="0 0 188.06 143.4"><defs><style>.cls-1{fill:#fff;}</style></defs><g id="Layer_2" data-name="Layer 2"><g id="Layer_1-2" data-name="Layer 1"><path class="cls-1" d="M94.73,104.8a17.35,17.35,0,0,0,13.6-6.4c3.6-4.2,5.4-9.6,5.4-16.4V0h46.4V82c0,12.2-2.6,23-8,32.2a54.52,54.52,0,0,1-23,21.6c-9.8,5-21.4,7.6-34.6,7.6s-24.8-2.6-34.8-7.6a53.3,53.3,0,0,1-23.4-21.6c-5.6-9.2-8.4-20-8.4-32.2V0h46.4V82c0,6.6,2,12.2,6,16.4A19.28,19.28,0,0,0,94.73,104.8Z"/><rect class="cls-1" y="24.13" width="188.06" height="13.87"/><rect class="cls-1" y="49.47" width="188.06" height="13.87"/></g></g></svg>